<?xml version="1.0" encoding="UTF-8"?>
<svg width="500"
     height="500"
     viewBox="0 0 500 500"
     version="1.1"
     xmlns="http://www.w3.org/2000/svg">
  <defs>
    <linearGradient id="bgGradient"
                    x1="8%"
                    y1="8%"
                    x2="92%"
                    y2="92%">
      <stop offset="0%" stop-color="#0B3A91" />
      <stop offset="100%" stop-color="#2563EB" />
    </linearGradient>
    <linearGradient id="ringGradient"
                    x1="0%"
                    y1="0%"
                    x2="100%"
                    y2="100%">
      <stop offset="0%" stop-color="#DBEAFE" />
      <stop offset="100%" stop-color="#93C5FD" />
    </linearGradient>
  </defs>
  <rect x="0"
        y="0"
        width="500"
        height="500"
        rx="110"
        fill="url(#bgGradient)" />
  <circle cx="250"
          cy="250"
          r="150"
          fill="none"
          stroke="#1E40AF"
          stroke-width="20"
          opacity="0.45" />
  <circle cx="250"
          cy="250"
          r="126"
          fill="none"
          stroke="url(#ringGradient)"
          stroke-width="24" />
  <path d="M259.5 141.4 A109 109 0 0 1 348.8 203.9"
        fill="none"
        stroke="#DBEAFE"
        stroke-width="34"
        stroke-linecap="round" />
  <path d="M357.4 231.1 A109 109 0 0 1 304.5 344.4"
        fill="none"
        stroke="#93C5FD"
        stroke-width="34"
        stroke-linecap="round" />
  <path d="M192.2 342.4 A109 109 0 0 1 152.1 202.2"
        fill="none"
        stroke="#60A5FA"
        stroke-width="34"
        stroke-linecap="round" />
  <circle cx="250"
          cy="250"
          r="70"
          fill="#0F2F78"
          stroke="#EAF2FF"
          stroke-width="8" />
  <line x1="250"
        y1="250"
        x2="250"
        y2="208"
        stroke="#EAF2FF"
        stroke-width="10"
        stroke-linecap="round" />
  <line x1="250"
        y1="250"
        x2="282"
        y2="266"
        stroke="#EAF2FF"
        stroke-width="10"
        stroke-linecap="round" />
  <circle cx="250"
          cy="250"
          r="8"
          fill="#EAF2FF" />
</svg>